<?xml version="1.0" standalone="no"?>
<!DOCTYPE svg PUBLIC "-//W3C//DTD SVG 20010904//EN"
 "http://www.w3.org/TR/2001/REC-SVG-20010904/DTD/svg10.dtd">
<svg version="1.0" xmlns="http://www.w3.org/2000/svg"
 width="186.000000pt" height="29.000000pt" viewBox="0 0 186.000000 29.000000"
 preserveAspectRatio="xMidYMid meet">

<g transform="translate(0.000000,29.000000) scale(0.100000,-0.100000)"
fill="#000000" stroke="none">
<path d="M1052 258 c2 -17 10 -23 28 -23 18 0 26 6 28 23 3 19 -1 22 -28 22
-27 0 -31 -3 -28 -22z"/>
<path d="M7 263 c-4 -3 -7 -62 -7 -130 l0 -123 30 0 c27 0 30 3 30 33 1 29 24
77 33 66 2 -2 16 -25 31 -51 23 -40 33 -48 57 -48 16 0 29 3 29 6 0 3 -19 37
-41 75 l-41 69 27 41 c16 22 32 42 37 45 18 11 7 24 -20 24 -23 0 -35 -10 -63
-50 -19 -27 -37 -50 -41 -50 -5 0 -8 13 -8 28 0 29 -40 78 -53 65z"/>
<path d="M900 234 c0 -17 -6 -28 -20 -31 -27 -7 -28 -53 -1 -53 23 0 31 -19
31 -74 0 -51 13 -66 57 -66 26 0 33 4 33 20 0 11 -7 20 -15 20 -14 0 -17 9
-17 45 0 49 2 55 27 55 20 0 25 5 25 25 0 20 -5 25 -25 25 -21 0 -25 5 -25 30
0 28 -3 30 -35 30 -31 0 -35 -3 -35 -26z"/>
<path d="M250 105 l0 -95 30 0 c29 0 30 1 30 51 0 63 13 89 45 89 14 0 25 4
25 9 0 5 3 16 6 25 7 19 -26 22 -57 6 -13 -7 -19 -7 -19 0 0 5 -13 10 -30 10
l-30 0 0 -95z"/>
<path d="M439 171 c-62 -62 -19 -161 71 -161 54 0 99 24 100 53 0 11 -58 9
-65 -3 -14 -22 -75 -4 -75 22 0 4 34 8 76 8 l77 0 -7 33 c-15 78 -119 106
-177 48z m109 -28 c2 -9 -9 -13 -38 -13 -37 0 -41 2 -30 16 15 17 61 15 68 -3z"/>
<path d="M690 193 c-19 -7 -40 -33 -40 -50 0 -17 52 -13 66 6 11 15 64 8 64
-8 0 -10 -35 -21 -68 -21 -23 0 -72 -40 -72 -60 0 -38 76 -63 120 -40 13 7 21
7 25 0 3 -5 18 -10 33 -10 l27 0 -5 76 c-4 64 -9 79 -29 95 -22 18 -86 25
-121 12z m88 -115 c-5 -15 -55 -35 -64 -25 -4 3 -4 13 -1 22 8 19 71 21 65 3z"/>
<path d="M1050 105 l0 -95 30 0 30 0 0 95 0 95 -30 0 -30 0 0 -95z"/>
<path d="M1140 188 c0 -7 11 -49 25 -95 l26 -83 40 0 c45 0 43 -2 77 118 l21
73 -32 -3 c-31 -3 -32 -5 -47 -73 -9 -38 -18 -65 -22 -60 -3 6 -12 38 -18 73
-12 59 -14 62 -41 62 -16 0 -29 -5 -29 -12z"/>
<path d="M1369 171 c-41 -41 -40 -91 1 -133 29 -28 35 -30 87 -26 44 4 61 10
76 29 19 24 19 24 -3 27 -12 2 -35 -2 -50 -8 -33 -14 -70 -5 -70 16 0 11 16
14 70 14 69 0 70 1 70 26 0 15 -12 38 -29 55 -42 42 -110 42 -152 0z m111 -26
c11 -13 7 -15 -29 -15 -39 0 -55 13 -28 23 23 10 45 7 57 -8z"/>
<path d="M1602 184 c-47 -33 -19 -83 56 -99 38 -8 44 -35 7 -35 -14 0 -25 5
-25 10 0 6 -13 10 -30 10 -36 0 -40 -22 -8 -44 29 -21 97 -20 126 0 17 12 22
24 20 47 -3 29 -8 34 -52 48 -28 8 -52 21 -54 27 -4 14 34 16 43 2 3 -5 19
-10 36 -10 34 0 37 12 9 40 -25 25 -95 27 -128 4z"/>
<path d="M1800 55 c-17 -20 -5 -45 20 -45 25 0 37 25 20 45 -16 19 -24 19 -40
0z"/>
</g>
</svg>
